<svg width="28" height="28" viewBox="0 0 28 28" fill="none" xmlns="http://www.w3.org/2000/svg">
<g id="cryptocurrency:eth" clip-path="url(#clip0_53_174)">
<g id="Group">
<path id="Vector" fill-rule="evenodd" clip-rule="evenodd" d="M14 28C6.26762 28 0 21.7324 0 14C0 6.26762 6.26762 0 14 0C21.7324 0 28 6.26762 28 14C28 21.7324 21.7324 28 14 28ZM20.9947 14.1916L14.4357 3.5L7.875 14.1925L14.4357 18.0014L20.9947 14.1916ZM21 15.414L14.4357 19.2211L7.875 15.4149L14.4357 24.4956L21 15.414Z" fill="#D1FAE5"/>
<g id="Group_2">
<path id="Vector_2" d="M14.4357 3.5V11.2613L20.9956 14.1925L14.4357 3.5ZM14.4357 19.222V24.4956L21 15.414L14.4357 19.222Z" fill="#D1FAE5" fill-opacity="0.298"/>
<path id="Vector_3" d="M14.4357 18.0014L20.9956 14.1925L14.4357 11.263V18.0014Z" fill="#D1FAE5" fill-opacity="0.801"/>
<path id="Vector_4" d="M7.875 14.1925L14.4357 18.0014V11.263L7.875 14.1925Z" fill="#D1FAE5" fill-opacity="0.298"/>
</g>
</g>
</g>
<defs>
<clipPath id="clip0_53_174">
<rect width="28" height="28" fill="white"/>
</clipPath>
</defs>
</svg>
